# xmcd
#
# Track frame offsets:
#	150
#	12385
#	22712
#	35195
#	45957
#	57560
#	68657
#	80172
#	89447
#	100585
#	111472
#	122595
#	133397
#	143850
#	154477
#	166302
#	179490
#	190802
#	202092
#	215432
#
# Disc length: 3043 seconds
# Revision: 1
# Processed by: cddbd v1.5.2PL0 Copyright (c) Steve Scherf et al.
# Submitted via: dBpowerAMP V12.0
#
DISCID=270be114
DTITLE=The Louvin Brothers - The Golden Era of Capitol Country
DYEAR=1990
DGENRE=Country
TTITLE0=Cash on the Barrell Head
TTITLE1=Your Running Wld
TTITLE2=My Baby's Gone
TTITLE3=New Partnes Waltz
TTITLE4=Chilish Love
TTITLE5=I Wish You Knew
TTITLE6=Don't Laugh
TTITLE7=Lorene
TTITLE8=Plenty of Everything But You
TTITLE9=Are You Washed in the Blood
TTITLE10=Have Found the Way
TTITLE11=Born Again
TTITLE12=River of Jordan
TTITLE13=Angel Rejoices Last Night
TTITLE14=Don't Let Your Sweet Love Die
TTITLE15=Are You Teasing Me
TTITLE16=Have I Stayed Away Too Long
TTITLE17=My Curly Headed Baby
TTITLE18=Ain't Gonna Work Tomorrow
TTITLE19=Broken Engagement
EXTD=
EXTT0=
EXTT1=
EXTT2=
EXTT3=
EXTT4=
EXTT5=
EXTT6=
EXTT7=
EXTT8=
EXTT9=
EXTT10=
EXTT11=
EXTT12=
EXTT13=
EXTT14=
EXTT15=
EXTT16=
EXTT17=
EXTT18=
EXTT19=
PLAYORDER=
